<?xml version="1.0" encoding="iso-8859-1"?>
<!-- Generator: Adobe Illustrator 19.0.0, SVG Export Plug-In . SVG Version: 6.00 Build 0)  -->
<svg xmlns="http://www.w3.org/2000/svg" xmlns:xlink="http://www.w3.org/1999/xlink" version="1.1" id="Capa_1" x="0px" y="0px" viewBox="0 0 512 512" style="enable-background:new 0 0 512 512;" xml:space="preserve" width="512px" height="512px">
<g>
	<g>
		<g>
			<path d="M512,130c0-37.6-28.65-71.661-80.674-95.909c-25.704-11.981-55.898-21.02-88.715-26.773     c2.183,2.88,4.299,5.877,6.344,8.995c7.655,11.674,13.882,24.32,18.467,37.255C432.099,70.717,472,101.451,472,130v180.21     c0,5.604-2.322,11.097-6.372,15.07c-3.86,3.786-8.832,5.815-14.026,5.717C440.793,330.789,432,321.819,432,311v-42.21     c0-16.276-6.692-32.176-18.36-43.623c-11.588-11.37-26.778-17.459-42.804-17.156c-15.785,0.302-30.575,6.676-41.645,17.948     C318.105,237.247,312,252.177,312,268v181.21c0,5.604-2.322,11.097-6.372,15.07c-3.859,3.786-8.822,5.81-14.026,5.717     C280.793,469.789,272,460.819,272,450V278.42c0-15.215-5.727-29.716-16.124-40.831c-10.346-11.06-24.385-17.771-39.529-18.896     c-51.519-3.829-98.117-16.051-131.214-34.417C56.028,168.126,40,148.851,40,130c0-28.549,39.901-59.283,104.578-76.432     c4.585-12.936,10.813-25.581,18.468-37.256c2.044-3.118,4.161-6.115,6.343-8.994c-32.817,5.753-63.012,14.792-88.715,26.773     C28.65,58.339,0,92.4,0,130c0,14.865,4.414,29.049,12.656,42.222C4.258,185.486,0,199.492,0,214     c0,15.043,4.599,29.517,13.433,43.026C4.523,270.661,0,285.09,0,300c0,14.301,4.156,28.088,12.155,41.02     C4.088,354.053,0,367.794,0,382c0,37.6,28.65,71.661,80.674,95.91C127.839,499.893,190.104,512,256,512     s128.161-12.107,175.326-34.09C483.35,453.661,512,419.6,512,382c0-13.099-3.48-25.788-10.333-37.892     C508.317,334.12,512,322.271,512,310.21V130z M41.746,203.477c37.579,29.264,98.113,49.643,171.636,55.106     c10.44,0.776,18.618,9.489,18.618,19.837v25.005C117.697,297.933,40,253.839,40,214C40,210.513,40.591,207,41.746,203.477z      M42.523,287.32c10.8,8.21,23.555,15.786,38.151,22.589c41.395,19.294,94.423,30.978,151.326,33.549v45.968     C117.697,383.933,40,339.839,40,300C40,295.805,40.851,291.567,42.523,287.32z M40,382c0-3.16,0.478-6.343,1.428-9.535     c11.032,8.537,24.147,16.406,39.246,23.444c41.395,19.294,94.423,30.978,151.326,33.549V450c0,7.499,1.387,14.791,4.01,21.597     C119.521,466.955,40,422.302,40,382z M352,268c0-10.819,8.793-19.789,19.602-19.996c5.171-0.102,10.167,1.931,14.026,5.716     c4.05,3.973,6.372,9.466,6.372,15.07v13.983c-12.459,4.422-25.83,8.196-40,11.295V268z M352,334.928     c14.523-2.868,28.391-6.378,41.52-10.498c2.443,10.717,7.791,20.586,15.671,28.61c2.094,2.133,4.323,4.088,6.665,5.862     c-18.221,8.637-39.948,15.875-63.856,21.146V334.928z M350.498,462.474c0.978-4.338,1.502-8.784,1.502-13.264v-28.289     c49.388-9.725,90.354-26.501,118.574-48.432c0.945,3.183,1.426,6.357,1.426,9.51C472,412.961,425.064,446.489,350.498,462.474z" fill="#FFFFFF"/>
			<path d="M204.639,142.35c2.892,1.374,5.912,2.517,9.025,3.474c-3.118,2.833-5.857,6.246-8.629,10.461     c-0.415,0.628-0.803,1.327-1.209,2.013c-0.377,0.743-0.811,1.402-1.225,2.127c-0.833,1.439-1.66,3.001-2.475,4.746     c-1.626,3.525-3.465,7.066-5.125,12.339c2.152,1.609,4.254,2.722,6.366,3.664c2.116,0.945,4.243,1.716,6.306,2.148     c4.132,0.887,8.313,1.268,12.202,0.74c7.941-0.737,15.108-4.111,21.016-8.91c5.924-4.801,10.474-11.282,12.849-18.859     c0.093-0.292,0.176-0.59,0.262-0.885c0.086,0.296,0.168,0.594,0.262,0.885c2.375,7.577,6.924,14.058,12.849,18.859     c5.908,4.798,13.074,8.173,21.016,8.91c3.889,0.528,8.07,0.147,12.202-0.74c2.063-0.433,4.19-1.204,6.306-2.148     c2.112-0.942,4.213-2.055,6.366-3.664c-1.66-5.274-3.499-8.814-5.125-12.339c-0.815-1.744-1.642-3.307-2.475-4.746     c-0.414-0.725-0.848-1.384-1.225-2.127c-0.407-0.686-0.795-1.385-1.209-2.013c-2.491-3.788-4.952-6.934-7.687-9.589     c4.201-1.108,8.253-2.527,12.083-4.346C320.654,136.036,336.5,122.348,336.5,93c0-18.374-8.302-40.964-21.664-58.956     C298.529,12.09,277.634,0,256,0c-21.634,0-42.529,12.09-58.836,34.044C183.802,52.036,175.5,74.626,175.5,93     C175.5,122.348,191.346,136.036,204.639,142.35z M256,40c20.086,0,40.5,34.002,40.5,53c0,10.165,0,17.51-40.5,17.51     s-40.5-7.345-40.5-17.51C215.5,74.002,235.914,40,256,40z" fill="#FFFFFF"/>
		</g>
	</g>
</g>
<g>
</g>
<g>
</g>
<g>
</g>
<g>
</g>
<g>
</g>
<g>
</g>
<g>
</g>
<g>
</g>
<g>
</g>
<g>
</g>
<g>
</g>
<g>
</g>
<g>
</g>
<g>
</g>
<g>
</g>
</svg>
