<?xml version="1.0" encoding="utf-8"?>
<!-- Generator: Adobe Illustrator 22.0.1, SVG Export Plug-In . SVG Version: 6.00 Build 0)  -->
<svg version="1.1" id="Capa_1" xmlns="http://www.w3.org/2000/svg" xmlns:xlink="http://www.w3.org/1999/xlink" x="0px" y="0px"
	 viewBox="0 0 41.7 41.8" style="enable-background:new 0 0 41.7 41.8;" xml:space="preserve">
<style type="text/css">
	.st0{fill:#FFFFFF;}
</style>
<g>
	<path class="st0" d="M40.5,36.9c-0.6-0.6-1.5-0.9-2.3-0.7c-0.7-1.2-1.8-2.6-3.1-4c-1.2-1.2-2.4-2.2-3.5-2.9
		c1.2-1.4,2.1-2.8,2.5-3.8c0.5,0.2,1,0.1,1.3-0.2c0.5-0.5,0.3-1.5-0.4-2.3c-0.8-0.8-1.8-0.9-2.3-0.4c-0.3,0.3-0.4,0.8-0.2,1.3
		c-1,0.3-2.2,1.1-3.5,2.3L5,0.9L0,0.1L0.9,5l25.2,24.2c-1.1,1.3-1.8,2.5-2.2,3.4c-0.5-0.2-1-0.1-1.3,0.2c-0.5,0.5-0.3,1.5,0.4,2.3
		c0.7,0.8,1.8,0.9,2.3,0.4c0.3-0.3,0.4-0.8,0.2-1.3c1-0.4,2.4-1.3,3.8-2.5c0.7,1.1,1.7,2.3,2.9,3.5c1.4,1.4,2.8,2.5,4,3.1
		c-0.2,0.8,0.1,1.7,0.7,2.3c1,1,2.7,1,3.7,0C41.5,39.6,41.5,38,40.5,36.9z M1.9,5.2L1.3,2.5l1.4,1.8l23.2,23.2L1.9,5.2z"/>
</g>
</svg>
